<?xml version="1.0" encoding="UTF-8" standalone="no"?>
<!DOCTYPE svg PUBLIC "-//W3C//DTD SVG 1.1//EN" "http://www.w3.org/Graphics/SVG/1.1/DTD/svg11.dtd">
<svg width="100%" height="100%" viewBox="0 0 2000 2000" version="1.1" xmlns="http://www.w3.org/2000/svg" xmlns:xlink="http://www.w3.org/1999/xlink" xml:space="preserve" xmlns:serif="http://www.serif.com/" style="fill-rule:evenodd;clip-rule:evenodd;stroke-linejoin:round;stroke-miterlimit:2;">
    <g id="bg" transform="matrix(1.381216,0,0,1.243781,-151.933602,-108.354786)">
        <path d="M1159.8,87.117C1379.72,87.117 1558,285.097 1558,529.317L1558,1252.917C1558,1497.138 1379.72,1695.117 1159.8,1695.117L508.2,1695.117C288.28,1695.117 110,1497.138 110,1252.917L110,529.317C110,285.097 288.28,87.117 508.2,87.117L1159.8,87.117Z" style="fill:rgb(31,42,59);"/>
    </g>
    <g id="n" transform="matrix(1,0,0,1,25.791354,9.259259)">
        <path d="M1352.699,531.85L1401.235,418.519L1672.628,418.519C1696.212,418.519 1718.218,430.366 1731.203,450.053C1744.188,469.74 1746.415,494.633 1737.131,516.312L1320.049,1490.205C1311.029,1511.266 1276.433,1556.892 1221.419,1562.963L911.111,1562.963L684.57,1095.656L719.813,1012.811L953.622,1495.111L1180.591,1495.111L1209.739,1495.111C1230.605,1495.111 1249.462,1482.673 1257.676,1463.493L1676.142,486.37L1445.988,486.37L1385.294,628.094C1383.915,610.717 1378.5,594.293 1374.249,580.167C1368.494,561.045 1360.956,546.134 1352.699,531.85ZM1233.465,982.616L1092.13,1312.634L973.594,1068.118L1048.998,1068.118L1088.308,1149.206L1129.254,1053.596C1153.547,1044.726 1187.706,1026.933 1213.684,1002.759C1220.742,996.191 1227.317,989.533 1233.465,982.616Z" style="fill:rgb(151,199,233);"/>
    </g>
    <g id="outer-p" serif:id="outer p" transform="matrix(1,0,0,1,161.79135,-333.740733)">
        <path d="M572.145,863.746L148.008,1854.111L342.377,1854.111L550.55,1359.807C555.196,1348.773 563.378,1339.955 573.45,1334.442L597.019,1383.061L376.802,1905.963L137.62,1905.963C122.496,1905.963 108.383,1898.365 100.055,1885.74C91.728,1873.115 90.3,1857.15 96.254,1843.247L536.133,816.125C550.318,783.003 582.89,761.533 618.922,761.556L795.227,761.667L955.72,761.847C1025.723,761.847 1082.595,771.494 1126.195,804.716C1170.465,838.449 1215.845,919.741 1220.534,983.443C1225.685,1053.416 1175.292,1201.099 1127.058,1252.795C1058.394,1326.388 1013.219,1379.932 894.675,1379.932L631.718,1379.932L606.581,1328.08L894.675,1328.08C994.809,1328.08 1031.145,1279.586 1089.145,1217.422C1130.352,1173.257 1173.222,1047.028 1168.822,987.25C1165.121,936.968 1129.713,872.586 1094.769,845.959C1059.364,818.982 1012.565,813.699 955.72,813.699L955.662,813.699L795.182,813.519L638.69,813.42C633.658,813.417 628.714,813.968 623.931,815.025L858.429,1298.747L782.711,1298.099L572.145,863.746Z" style="fill:rgb(151,199,233);"/>
    </g>
    <g id="inner-p" serif:id="inner p">
        <path d="M734.333,603.866L802.004,744.833L484.693,1491.037L354.272,1491.037L734.333,603.866Z" style="fill:url(#_Linear1);"/>
        <path d="M910.07,660.841C910.07,660.841 837.345,509.033 837.776,509.033L956.947,509.112L1117.42,509.291L1117.511,509.291C1166.925,509.291 1208.005,512.1 1238.782,535.55C1268.45,558.157 1298.217,612.972 1301.359,655.662C1305.335,709.673 1266.72,823.766 1229.489,863.671C1177.512,919.379 1142.201,965.006 1052.466,965.006L642.37,964.582L700.184,826.099L1002.144,824.725C1065.015,821.4 1139.121,772.391 1133.785,715.799C1128.009,654.542 1065.284,659.363 1030.55,659.71L910.07,660.841Z" style="fill:url(#_Linear2);"/>
    </g>
    <defs>
        <linearGradient id="_Linear1" x1="0" y1="0" x2="1" y2="0" gradientUnits="userSpaceOnUse" gradientTransform="matrix(-422.727968,982.003707,-982.003707,-422.727968,777,509.033341)"><stop offset="0" style="stop-color:rgb(244,106,177);stop-opacity:1"/><stop offset="0.51" style="stop-color:rgb(240,81,163);stop-opacity:1"/><stop offset="1" style="stop-color:rgb(229,0,118);stop-opacity:1"/></linearGradient>
        <linearGradient id="_Linear2" x1="0" y1="0" x2="1" y2="0" gradientUnits="userSpaceOnUse" gradientTransform="matrix(-422.727968,982.003707,-982.003707,-422.727968,777,509.033341)"><stop offset="0" style="stop-color:rgb(244,106,177);stop-opacity:1"/><stop offset="0.51" style="stop-color:rgb(240,81,163);stop-opacity:1"/><stop offset="1" style="stop-color:rgb(229,0,118);stop-opacity:1"/></linearGradient>
    </defs>
</svg>
