<?xml version="1.0" encoding="UTF-8" standalone="no"?><!DOCTYPE svg PUBLIC "-//W3C//DTD SVG 1.1//EN" "http://www.w3.org/Graphics/SVG/1.1/DTD/svg11.dtd"><svg width="100%" height="100%" viewBox="0 0 2000 2000" version="1.1" xmlns="http://www.w3.org/2000/svg" xmlns:xlink="http://www.w3.org/1999/xlink" xml:space="preserve" xmlns:serif="http://www.serif.com/" style="fill-rule:evenodd;clip-rule:evenodd;stroke-linejoin:round;stroke-miterlimit:2;"><path id="bg" d="M1450,0c303.757,0 550,246.243 550,550l-0,900c-0,303.757 -246.243,550 -550,550l-900,0c-303.757,-0 -550,-246.243 -550,-550l-0,-900c0,-303.757 246.243,-550 550,-550l900,0Z"/><path id="n" d="M1378.49,541.109l48.536,-113.331l271.393,0c23.584,0 45.59,11.847 58.575,31.534c12.985,19.687 15.212,44.58 5.928,66.26l-417.082,973.892c-9.02,21.061 -43.616,66.687 -98.63,72.758l-310.308,0l-226.541,-467.307l35.243,-82.845l233.809,482.3l226.969,0l29.148,-0c20.866,-0 39.723,-12.438 47.937,-31.618l418.466,-977.122l-230.153,-0l-60.695,141.723c-1.379,-17.377 -6.794,-33.801 -11.045,-47.927c-5.755,-19.122 -13.293,-34.033 -21.55,-48.317Zm-119.234,450.766l-141.335,330.018l-118.537,-244.517l75.404,0l39.31,81.088l40.946,-95.61c24.293,-8.87 58.452,-26.664 84.43,-50.837c7.058,-6.568 13.633,-13.227 19.781,-20.143Z" style="fill:#fff;"/><path id="outer-p" serif:id="outer p" d="M733.936,530.005l-424.137,990.365l194.369,0l208.173,-494.304c4.647,-11.033 12.828,-19.852 22.9,-25.364l23.569,48.618l-220.217,522.902l-239.182,0c-15.124,0 -29.237,-7.598 -37.565,-20.223c-8.327,-12.625 -9.756,-28.59 -3.802,-42.493l439.879,-1027.123c14.185,-33.122 46.757,-54.592 82.789,-54.569l176.305,0.111l160.493,0.18c70.003,0 126.875,9.647 170.475,42.869c44.271,33.733 89.65,115.025 94.339,178.727c5.151,69.972 -45.242,217.655 -93.476,269.352c-68.664,73.593 -113.839,127.137 -232.383,127.137l-262.957,0l-25.137,-51.852l288.094,0c100.134,0 136.471,-48.494 194.471,-110.658c41.207,-44.165 84.077,-170.394 79.677,-230.172c-3.701,-50.282 -39.109,-114.664 -74.053,-141.291c-35.405,-26.978 -82.204,-32.261 -139.049,-32.261l-0.058,-0l-160.48,-0.18l-156.492,-0.099c-5.033,-0.003 -9.976,0.547 -14.759,1.605l234.498,483.722l-75.718,-0.648l-210.566,-434.353Z" style="fill:#fff;"/><g id="inner-p" serif:id="inner p"><path d="M734.333,603.866l67.671,140.966l-317.31,746.204l-130.421,-0l380.06,-887.171Z" style="fill:#eb088c;"/><path d="M910.07,660.841c0,0 -72.725,-151.808 -72.295,-151.808l119.172,0.078l160.473,0.18l0.091,0c49.414,0 90.494,2.808 121.271,26.259c29.668,22.606 59.435,77.422 62.578,120.112c3.976,54.011 -34.639,168.104 -71.87,208.008c-51.977,55.708 -87.288,101.336 -177.023,101.336l-410.096,-0.424l57.814,-138.483l301.959,-1.374c62.871,-3.325 136.978,-52.334 131.642,-108.926c-5.776,-61.256 -68.501,-56.436 -103.235,-56.089l-120.48,1.131Z" style="fill:#eb088c;"/><path d="M760.446,964.704c-31.473,-0.033 -59.916,18.759 -72.232,47.722c-55.145,129.682 -203.521,478.611 -203.521,478.611l-130.421,-0l380.06,-887.171l67.671,140.966l-34.427,80.959l234.566,-1.067c62.871,-3.325 136.978,-52.334 131.642,-108.926c-5.776,-61.256 -68.501,-56.436 -103.235,-56.089l-120.48,1.131c0,0 -72.725,-151.808 -72.295,-151.808l119.172,0.078l160.473,0.18l0.091,0c49.414,0 90.494,2.808 121.271,26.259c29.668,22.606 59.435,77.422 62.578,120.112c3.976,54.011 -34.639,168.104 -71.87,208.008c-51.977,55.708 -87.288,101.336 -177.023,101.336c0,0 -195.919,-0.203 -292.02,-0.302Z" style="fill:#eb088c;"/></g></svg>